#!OML:ASF F:\VICON\USERDATA\INSTALL\rory3\rory3.ASF
:FULLY-SPECIFIED
:DEGREES
230
root 0.267763 20.5744 7.16625 -155.632 -31.2297 -191.457
lowerback 3.02233 -12.3888 -1.09436
upperback -8.56873 -17.9994 -2.56487
thorax -11.4512 -9.10463 0.266486
lowerneck -20.7882 0.0416892 0.481298
upperneck 36.0206 1.32564 3.3289
head 16.4171 2.04747 1.91765
rclavicle -9.50688e-014 8.74653e-015
rhumerus -98.382 -50.8456 92.3244
rradius 14.7419
rwrist 82.2552
rhand -7.20532 6.76683
rfingers 7.12502
rthumb 18.6733 -22.3569
lclavicle -9.50688e-014 8.74653e-015
lhumerus 39.3466 -11.2898 29.4928
lradius 13.5994
lwrist -61.3062
lhand -7.11242 27.3798
lfingers 7.12502
lthumb 18.7627 56.4949
rfemur -73.5936 -17.4672 -8.56007
rtibia 55.704
rfoot 26.106 -25.7438
rtoes 29.9037
lfemur -4.3058 -8.35956 -0.482331
ltibia 17.4059
lfoot -59.5678 30.1257
ltoes 48.5015
231
root 0.265891 20.3237 7.00261 -155.488 -30.6997 -191.358
lowerback 2.4825 -12.1341 -1.52978
upperback -8.59345 -17.6703 -2.51951
thorax -11.0006 -8.94169 0.329086
lowerneck -20.849 -0.102018 0.154595
upperneck 36.0826 1.22902 3.35859
head 16.4627 1.96835 1.97377
rclavicle 4.89756e-014 3.73715e-014
rhumerus -98.0735 -48.1888 90.7753
rradius 14.5701
rwrist 82.8018
rhand -7.76568 7.28742
rfingers 7.12502
rthumb 18.1343 -21.8872
lclavicle 4.89756e-014 3.73715e-014
lhumerus 36.9756 -10.3561 32.889
lradius 12.978
lwrist -64.6865
lhand -7.82152 26.5636
lfingers 7.12502
lthumb 18.0806 55.7432
rfemur -74.103 -17.7768 -2.49986
rtibia 57.441
rfoot 28.2164 -22.1192
rtoes 25.913
lfemur -7.53951 -7.21943 -1.61198
ltibia 21.4478
lfoot -57.4684 30.518
ltoes 47.4024
232
root 0.25775 20.0604 6.83902 -155.386 -30.0608 -191.195
lowerback 1.75768 -11.8347 -1.90456
upperback -8.5464 -17.2578 -2.516
thorax -10.398 -8.75237 0.266547
lowerneck -20.6866 -0.204585 -0.149131
upperneck 35.8922 1.12957 3.46452
head 16.3255 1.89295 2.04018
rclavicle 1.72943e-014 3.10104e-014
rhumerus -97.3686 -45.5027 88.5574
rradius 14.2667
rwrist 82.2936
rhand -8.11563 7.59502
rfingers 7.12502
rthumb 17.7976 -21.6105
lclavicle 1.72943e-014 3.10104e-014
lhumerus 34.6253 -11.2462 34.4249
lradius 12.8806
lwrist -64.9541
lhand -8.27527 26.1469
lfingers 7.12502
lthumb 17.644 55.3663
rfemur -74.1385 -17.709 3.02116
rtibia 59.0982
rfoot 28.2045 -20.022
rtoes 21.1992
lfemur -10.4005 -6.52386 -2.7829
ltibia 25.0138
lfoot -55.2295 31.1701
ltoes 46.0878
233
root 0.22795 19.7939 6.69434 -155.381 -29.7067 -190.808
lowerback 1.07492 -11.608 -1.51771
upperback -8.45288 -16.894 -2.5666
thorax -10.0144 -8.63344 -0.174162
lowerneck -20.691 -0.265292 -0.176912
upperneck 35.6962 1.0095 3.4419
head 16.2308 1.82134 1.9993
rclavicle -5.69021e-015 -1.19271e-014
rhumerus -97.8931 -42.845 87.6007
rradius 13.987
rwrist 81.6973
rhand -8.45606 7.86152
rfingers 7.12502
rthumb 17.47 -21.3735
lclavicle -5.69021e-015 -1.19271e-014
lhumerus 32.3434 -12.8211 35.3767
lradius 13.1191
lwrist -64.0943
lhand -8.22497 26.0675
lfingers 7.12502
lthumb 17.6924 55.2826
rfemur -73.6007 -18.1484 8.59381
rtibia 60.395
rfoot 28.1677 -18.6683
rtoes 17.9601
lfemur -12.9314 -5.74501 -3.71885
ltibia 27.9098
lfoot -51.88 32.1716
ltoes 44.2471
234
root 0.204186 19.4965 6.54175 -155.426 -29.1626 -190.551
lowerback 0.349556 -11.3423 -1.5897
upperback -8.16401 -16.4576 -2.61151
thorax -9.24765 -8.44137 -0.442253
lowerneck -21.2156 -0.369975 -0.290657
upperneck 35.5405 0.775637 3.47789
head 16.2848 1.68166 1.98435
rclavicle -3.10104e-014 3.18055e-015
rhumerus -101.952 -39.9879 91.3731
rradius 13.9526
rwrist 83.7328
rhand -9.0822 8.50677
rfingers 7.12502
rthumb 16.8673 -20.7807
lclavicle -3.10104e-014 3.18055e-015
lhumerus 30.2139 -13.6677 36.8051
lradius 13.3024
lwrist -63.8729
lhand -8.24779 25.7788
lfingers 7.12502
lthumb 17.6704 54.9958
rfemur -72.67 -18.5215 13.5947
rtibia 61.4329
rfoot 28.3801 -17.6874
rtoes 12.8289
lfemur -15.0683 -4.55774 -4.80597
ltibia 30.4271
lfoot -47.1593 33.7238
ltoes 41.0914
235
root 0.188596 19.2373 6.37387 -155.557 -28.5895 -190.422
lowerback -0.580185 -11.1596 -2.00832
upperback -7.63077 -16.0845 -2.63392
thorax -8.00077 -8.25515 -0.594289
lowerneck -21.7869 -0.350823 -0.509291
upperneck 35.1095 0.643457 3.70033
head 16.2073 1.57573 2.07185
rclavicle 1.29856e-013 2.70347e-014
rhumerus -105.773 -37.0974 94.6747
rradius 13.9037
rwrist 85.4328
rhand -9.86556 9.18426
rfingers 7.12502
rthumb 16.1131 -20.1659
lclavicle 1.29856e-013 2.70347e-014
lhumerus 28.0596 -14.7657 37.889
lradius 13.6388
lwrist -62.3077
lhand -8.05223 25.5522
lfingers 7.12502
lthumb 17.8586 54.7522
rfemur -70.7265 -18.7053 17.7341
rtibia 61.8189
rfoot 28.3971 -17.6026
rtoes 7.63406
lfemur -16.8125 -3.20813 -6.08689
ltibia 32.5636
lfoot -41.9845 35.027
ltoes 36.9161
236
root 0.162726 18.9692 6.21287 -155.746 -28.3556 -189.921
lowerback -0.900794 -10.8988 -1.26519
upperback -7.86469 -15.777 -2.78251
thorax -8.31473 -8.17636 -1.14255
lowerneck -21.1678 -0.417589 -0.502305
upperneck 34.9779 0.547185 3.81464
head 15.9973 1.57191 2.08937
rclavicle 3.26504e-014 4.37326e-014
rhumerus -105.237 -34.6095 92.7564
rradius 13.615
rwrist 84.1908
rhand -10.3929 9.29701
rfingers 7.12502
rthumb 15.6053 -20.0935
lclavicle 3.26504e-014 4.37326e-014
lhumerus 25.0177 -17.7955 38.8047
lradius 14.6415
lwrist -58.7248
lhand -6.96103 26.0501
lfingers 7.12502
lthumb 18.9083 55.1511
rfemur -68.2444 -18.974 21.4979
rtibia 61.7018
rfoot 28.3031 -18.0833
rtoes 5.5222
lfemur -18.5179 -1.9925 -6.91364
ltibia 34.4973
lfoot -38.0521 34.6202
ltoes 33.8713
237
root 0.136953 18.6813 6.05038 -156.014 -28.0583 -189.222
lowerback -1.60768 -10.6639 -0.490545
upperback -7.84241 -15.422 -2.80336
thorax -8.08317 -8.07066 -1.71152
lowerneck -20.7158 -0.380359 -0.518286
upperneck 34.6328 0.576161 3.86318
head 15.7193 1.58123 2.0937
rclavicle 2.16675e-014 -7.95139e-016
rhumerus -105.555 -32.3434 91.3104
rradius 13.331
rwrist 83.3972
rhand -10.6548 8.42598
rfingers 7.12502
rthumb 15.353 -20.984
lclavicle 2.16675e-014 -7.95139e-016
lhumerus 22.2208 -20.3935 39.9082
lradius 15.4438
lwrist -55.1373
lhand -6.69976 26.3091
lfingers 7.12502
lthumb 19.1596 55.3854
rfemur -65.1453 -18.3579 24.1821
rtibia 61.0471
rfoot 28.8099 -17.7916
rtoes 2.92837
lfemur -19.9854 -0.782672 -7.56142
ltibia 36.2625
lfoot -35.0714 33.2993
ltoes 31.6757
238
root 0.115188 18.3712 5.88489 -156.333 -27.6509 -188.718
lowerback -2.24309 -10.4613 -0.0392965
upperback -7.78729 -15.1194 -2.80303
thorax -7.76188 -7.96373 -2.09127
lowerneck -20.1214 -0.320526 -0.695045
upperneck 34.19 0.684158 3.94165
head 15.3614 1.60259 2.14574
rclavicle 2.66123e-014 5.1684e-014
rhumerus -107.285 -29.8681 92.2929
rradius 13.1556
rwrist 85.0514
rhand -11.1544 8.03992
rfingers 7.12502
rthumb 14.8718 -21.4063
lclavicle 2.66123e-014 5.1684e-014
lhumerus 19.1076 -22.664 41.3862
lradius 16.5281
lwrist -51.3812
lhand -6.50261 26.6839
lfingers 7.12502
lthumb 19.3491 55.7413
rfemur -61.4688 -16.5859 25.3737
rtibia 60.0602
rfoot 28.1735 -18.2512
rtoes -0.284201
lfemur -21.321 0.448449 -8.43741
ltibia 38.161
lfoot -31.5233 32.6256
ltoes 27.9575
